<?xml version="1.0" encoding="iso-8859-1"?>
<!-- Generator: Adobe Illustrator 18.0.0, SVG Export Plug-In . SVG Version: 6.00 Build 0)  -->
<!DOCTYPE svg PUBLIC "-//W3C//DTD SVG 1.1//EN" "http://www.w3.org/Graphics/SVG/1.1/DTD/svg11.dtd">
<svg version="1.1" id="Capa_1" xmlns="http://www.w3.org/2000/svg" xmlns:xlink="http://www.w3.org/1999/xlink" x="0px" y="0px"
	 viewBox="0 0 247.047 247.047" style="enable-background:new 0 0 247.047 247.047;" xml:space="preserve">
<path d="M191.909,84.664c-6.8-3.743-9.132-4.337-12.36-6.428l-21-13.614c-3.233-2.088-9.023-3.802-12.873-3.802H82.888
	c-3.848,0-6.984,3.148-6.972,7.002l0.077,22.752c0.013,3.849-2.326,9.088-5.209,11.642l-24.005,21.285
	c-2.883,2.551-6.733,1.865-8.56-1.517l-5.521-10.248c-1.832-3.387-6.408-6.809-10.176-7.599l-18.12-3.829
	c-3.765-0.786-5.448,1.388-3.729,4.83l12.685,25.532c1.716,3.447,1.845,9.144,0.281,12.664l-12,27.118
	c-1.555,3.524,0.185,5.506,3.87,4.396l13.733-4.096c3.688-1.104,8.74-4.402,11.239-7.326l6.831-8.016
	c2.492-2.929,7.398-4.016,10.901-2.411l25.199,11.537c3.499,1.591,5.47,5.928,4.38,9.619l-2.213,7.476
	c-1.094,3.696,0.938,5.543,4.509,4.107l18.831-7.57c3.57-1.439,9.598-2.062,13.386-1.399c0,0,23.601,6.509,40.271,6.509
	c55.258,0,94.451-46.159,94.469-46.878C247.06,135.84,224.012,102.331,191.909,84.664z"/>
<g>
</g>
<g>
</g>
<g>
</g>
<g>
</g>
<g>
</g>
<g>
</g>
<g>
</g>
<g>
</g>
<g>
</g>
<g>
</g>
<g>
</g>
<g>
</g>
<g>
</g>
<g>
</g>
<g>
</g>
</svg>
