<?xml version="1.0" encoding="iso-8859-1"?>
<!-- Generator: Adobe Illustrator 18.0.0, SVG Export Plug-In . SVG Version: 6.00 Build 0)  -->
<!DOCTYPE svg PUBLIC "-//W3C//DTD SVG 1.1//EN" "http://www.w3.org/Graphics/SVG/1.1/DTD/svg11.dtd">
<svg version="1.1" id="Capa_1" xmlns="http://www.w3.org/2000/svg" xmlns:xlink="http://www.w3.org/1999/xlink" x="0px" y="0px"
	 viewBox="0 0 213.757 213.757" style="enable-background:new 0 0 213.757 213.757;" xml:space="preserve">
<path d="M190.311,30.558c0,0,0-23.343-8.846-22.634c-8.836,0.711,0,22.634,0,22.634s-9.896,10.979-13.438,21.586
	c-3.537,10.609-14.143,17.333-27.586,21.571c-13.438,4.247-54.82,29.361-54.461,74.631c0.701,31.123-5.242,47.392-83.402,44.21
	c-5.658,0-2.16,2.687,12.021,7.074c17.51,5.414,31.404,6.219,39.197,6.013c18.746-0.509,41.438-4.67,51.879-22.281
	c4.354-6.72,6.475-6.72,8.24-6.72c1.771,0,5.305,1.061,8.137,3.532c2.826,2.477,5.305,4.953,5.305,7.784
	c0,2.825-3.176,5.039-4.951,9.548c-1.168,2.957-2.125,7.966,7.068,8.227c9.205,0.261,57.166,0,57.166,0s6.719-1.51,7.068-6.102
	c0.357-4.599-4.947-7.074-10.961-6.724c-6.014,0.355-38.42,2.481-41.596-1.411c-3.182-3.896-4.248-14.854,1.414-19.102
	c5.658-4.241,21.291-21.895,19.447-42.083c-1.518-16.654,1.363-18.351,3.752-19.102c3.1-0.955,6.27-0.239,8.822,4.705
	c2.553,4.943,3.027,15.479,7.742,15.633c4.705,0.162,5.264-5.82,5.18-7.42c-0.08-1.593,0.559-13.246-13.641-25.214
	c-1.592-1.274-3.348-3.831,0.24-9.339c3.592-5.506,9.012-13.246,11.809-28.72c0.475-3.114,1.355-4.311,5.102-4.311
	c3.752,0,17.711,0.153,17.711,0.153s5.025-0.398,5.025-3.909C213.757,49.278,200.097,33.128,190.311,30.558z"/>
<g>
</g>
<g>
</g>
<g>
</g>
<g>
</g>
<g>
</g>
<g>
</g>
<g>
</g>
<g>
</g>
<g>
</g>
<g>
</g>
<g>
</g>
<g>
</g>
<g>
</g>
<g>
</g>
<g>
</g>
</svg>
