<?xml version="1.0" encoding="iso-8859-1"?>
<!-- Generator: Adobe Illustrator 18.0.0, SVG Export Plug-In . SVG Version: 6.00 Build 0)  -->
<!DOCTYPE svg PUBLIC "-//W3C//DTD SVG 1.1//EN" "http://www.w3.org/Graphics/SVG/1.1/DTD/svg11.dtd">
<svg version="1.1" id="Capa_1" xmlns="http://www.w3.org/2000/svg" xmlns:xlink="http://www.w3.org/1999/xlink" x="0px" y="0px"
	 viewBox="0 0 267.186 267.186" style="enable-background:new 0 0 267.186 267.186;" xml:space="preserve">
<path d="M217.639,9.346c-6.57-3.795-4.146-8.98-14.867-9.336c-10.718-0.34-12.793,8.305-12.445,13.494
	c0.341,5.182,11.055,62.914,13.482,75.011c2.418,12.1-3.459,15.59-7.956,15.548c-13.926-0.145-20.374-23.176-44.942-25.923
	c-15.151-1.694-39.214,2.88-52.703,23.63c-3.869,5.313-8.264,15.895-12.29,15.792c0,0-61.745-5.032-41.699,9.147
	c-7.991,5.825-10.852,16.444-0.128,13.674c-4.149,8.308-2.079,20.049,10.024,12.797c1.039,13.485,8.65,30.426,33.199-14.516
	c4.068-6.669,12.339,23.682,31.45,23.504c6.363,0.049,7.26,2.705,7.607,5.673c0.264,2.314,2.861,12.866,7.583,17.263v73.935h-4.796
	c-2.245,0-4.07,1.827-4.07,4.072c0,2.246,1.825,4.075,4.07,4.075h24.697c2.252,0,4.068-1.829,4.068-4.075
	c0-2.245-1.816-4.072-4.068-4.072h-11.767v-74.033c4.535-5.292,6.112-19.105,10.9-19.388c5.869-0.349,40.101-4.534,44.255-33.729
	c0.684-4.305,6.373-10.828,12.066-14.894c7.666-5.481,13.574-14.985,9.707-29.86c-4.515-17.377-14.866-60.15-14.866-60.15
	s-0.342-7.603,5.882-7.603c6.222,0,19.7-0.006,20.046-2.771C230.433,13.848,224.203,13.159,217.639,9.346z"/>
<g>
</g>
<g>
</g>
<g>
</g>
<g>
</g>
<g>
</g>
<g>
</g>
<g>
</g>
<g>
</g>
<g>
</g>
<g>
</g>
<g>
</g>
<g>
</g>
<g>
</g>
<g>
</g>
<g>
</g>
</svg>
