<?xml version="1.0" encoding="iso-8859-1"?>
<!-- Generator: Adobe Illustrator 18.0.0, SVG Export Plug-In . SVG Version: 6.00 Build 0)  -->
<!DOCTYPE svg PUBLIC "-//W3C//DTD SVG 1.1//EN" "http://www.w3.org/Graphics/SVG/1.1/DTD/svg11.dtd">
<svg version="1.1" id="Capa_1" xmlns="http://www.w3.org/2000/svg" xmlns:xlink="http://www.w3.org/1999/xlink" x="0px" y="0px"
	 viewBox="0 0 311.902 311.902" style="enable-background:new 0 0 311.902 311.902;" xml:space="preserve">
<path d="M296.824,140.143c-11.774-7.299-6.313-41.51-35.965-49.936c-10.439-36.807-16.815-2.331-16.815-2.331
	c-27.487-15.119-48.936-14.413-73.545-3.637c-14.767,6.458-60.899-1.369-76.363,0.45c-15.418,1.057-28.565,7.028-39.459,15.421
	c-1.766,1.43-3.323,3.004-4.686,4.681c-4.522,1.976-16.603,7.844-24.015,17.005c-10.805-0.622-27.63,10.272-25.845,12.085
	c1.779,1.814,9.519-7.741,22.628-8.395c-2.185,3.122-2.331,6.723-1.625,8.622c0.7,1.902,4.934,8.267,12.475,4.378
	c7.455-3.835,5.594-10.084,5.273-10.756c-0.312-0.683-2.31-4.563-6.042-5.41c5.551-3.968,8.049-5.79,11.385-6.856
	c-8.379,25.307,9.421,61.386,27.191,61.625c-19.083,14.328,19.438,61.179,19.438,61.179s11.471,0.921,21.918,0
	c-37.709-35.437-16.812-49.465-9.99-56.514c25.443,12.968,49.413,6.078,56.649,6.078c7.236,0,8.662,3.177,6.855,6.818
	c-13.624,30.895,1.468,43.618,1.468,43.618s12.72-0.447,19.546,0c-14.994-16.358-8.645-26.789-8.645-26.789
	c12.275-28.634,49.767-48.751,55.907-49.97c18.187-7.275,47.619-0.012,52.725,0c11.624,0.034,25.897-18.189,24.519-21.368
	C310.459,136.963,303.633,141.966,296.824,140.143z M34.67,128.497c1.31,1.531,0.312,3.949-2.899,5.769
	c-3.204,1.828-5.719,0.387-6.133-2.227c-0.397-2.515,2.536-6.035,2.536-6.035S33.123,126.688,34.67,128.497z"/>
<g>
</g>
<g>
</g>
<g>
</g>
<g>
</g>
<g>
</g>
<g>
</g>
<g>
</g>
<g>
</g>
<g>
</g>
<g>
</g>
<g>
</g>
<g>
</g>
<g>
</g>
<g>
</g>
<g>
</g>
</svg>
