<?xml version="1.0" encoding="iso-8859-1"?>
<!-- Generator: Adobe Illustrator 18.0.0, SVG Export Plug-In . SVG Version: 6.00 Build 0)  -->
<!DOCTYPE svg PUBLIC "-//W3C//DTD SVG 1.1//EN" "http://www.w3.org/Graphics/SVG/1.1/DTD/svg11.dtd">
<svg version="1.1" id="Capa_1" xmlns="http://www.w3.org/2000/svg" xmlns:xlink="http://www.w3.org/1999/xlink" x="0px" y="0px"
	 viewBox="0 0 208.208 208.208" style="enable-background:new 0 0 208.208 208.208;" xml:space="preserve">
<path d="M9.097,99.618c-2.303,12.5,2.309,21.26,0,34.471c-2.08,6.99-4.099,28.389-3.409,32.504
	c1.603,9.555,12.591,41.537,12.591,41.537h17.043c-25.482-65.804,2.36-73.909,9.649-73.681c41.796,1.787,0,0,41.796,1.787
	c14.273,0.612,20.897,2.621,33.031,26.063c5.183,10.025,9.284,45.364,9.284,45.364s7.67,1.069,15.924,0
	c-1.746-23.934-9.85-66.428-12.713-79.997c-1.868-10.338,20.708-34.22,32.325-47.145c10.417-11.585,21.243-11.071,30.892-8.215
	c9.637,2.856,9.637,2.137,12.488-2.498c2.866-4.646-24.505-40.327-24.505-40.327c-0.12-16.239-10.491-29.411-32.035-29.411
	c-21.114,0-32.02,13.31-32.02,29.672c0,11.21,7.941,20.586,18.477,22.83c1.573,0.325,3.198,0.514,4.854,0.514
	c7.193,0,13.365-4.213,16.342-10.256c0.217-0.44,0.428-0.854,0.616-1.314c0.829-2.065,1.307-4.318,1.307-6.688
	c0-7.673-6.128-13.905-13.745-14.147c-0.15,0-0.291-0.044-0.44-0.044c-1.143,0-2.058-0.92-2.058-2.057
	c0-1.134,0.915-2.048,2.058-2.048c10.089,0,18.292,8.207,18.292,18.296c0,1.429-0.145,2.81-0.406,4.156
	c-0.245,1.331-0.621,2.606-1.095,3.846c-3.233,8.387-10.777,14.835-20.871,16.696c-3.19,0.581-32.321,5.291-72.434,6.707
	c-44.62,1.573-50.718,7.859-57.15,16.076C-9.961,90.278,3.194,105.348,9.097,99.618z"/>
<g>
</g>
<g>
</g>
<g>
</g>
<g>
</g>
<g>
</g>
<g>
</g>
<g>
</g>
<g>
</g>
<g>
</g>
<g>
</g>
<g>
</g>
<g>
</g>
<g>
</g>
<g>
</g>
<g>
</g>
</svg>
