<?xml version="1.0" encoding="iso-8859-1"?>
<!-- Generator: Adobe Illustrator 18.0.0, SVG Export Plug-In . SVG Version: 6.00 Build 0)  -->
<!DOCTYPE svg PUBLIC "-//W3C//DTD SVG 1.1//EN" "http://www.w3.org/Graphics/SVG/1.1/DTD/svg11.dtd">
<svg version="1.1" id="Capa_1" xmlns="http://www.w3.org/2000/svg" xmlns:xlink="http://www.w3.org/1999/xlink" x="0px" y="0px"
	 viewBox="0 0 206.498 206.498" style="enable-background:new 0 0 206.498 206.498;" xml:space="preserve">
<path d="M109.164,52.548c16.525,1.76,55.552,9.332,79.461,30.778c10.899-14.063,3.516-74.178-85.086-74.888
	c0,0-9.832-8.438-25.415-8.438C56.83,0,28.999,31.646,29.352,71.373c-7.734,0-16.009,6.684-15.307,31.295
	c0.514,18.016,5.092,54.115,41.984,72.998v18.129H37.659c-3.508,0-6.351,2.846-6.351,6.351c0,3.508,2.843,6.352,6.351,6.352h27.578
	h10.978h27.577c3.507,0,6.351-2.844,6.351-6.352c0-3.506-2.844-6.351-6.351-6.351h-7.483v-6.979
	c4.612,0.49,9.471,0.813,14.613,0.936c12.657,6.682,22.852,22.502,31.643,17.928c1.762-0.916,2.607-7.759,2.514-17.928h17.645
	v-0.002c3.826,0,6.924-3.342,6.924-7.465c0-4.125-3.098-7.467-6.924-7.467c3.826,0,6.924-3.342,6.924-7.465
	c0-4.124-3.098-7.466-6.924-7.466h-19.729c-5.171-44.04-20-100.49-45.188-86.117C92.55,67.925,92.638,50.788,109.164,52.548z
	 M83.607,193.795h-7.392h-7.484v-12.801c4.566,1.545,9.517,2.863,14.876,3.918V193.795z"/>
<g>
</g>
<g>
</g>
<g>
</g>
<g>
</g>
<g>
</g>
<g>
</g>
<g>
</g>
<g>
</g>
<g>
</g>
<g>
</g>
<g>
</g>
<g>
</g>
<g>
</g>
<g>
</g>
<g>
</g>
</svg>
