<?xml version="1.0" encoding="iso-8859-1"?>
<!-- Generator: Adobe Illustrator 18.0.0, SVG Export Plug-In . SVG Version: 6.00 Build 0)  -->
<!DOCTYPE svg PUBLIC "-//W3C//DTD SVG 1.1//EN" "http://www.w3.org/Graphics/SVG/1.1/DTD/svg11.dtd">
<svg version="1.1" id="Capa_1" xmlns="http://www.w3.org/2000/svg" xmlns:xlink="http://www.w3.org/1999/xlink" x="0px" y="0px"
	 viewBox="0 0 172.963 172.963" style="enable-background:new 0 0 172.963 172.963;" xml:space="preserve">
<path d="M147.081,17.938C142.62,7.408,132.184,0,120.044,0c-16.184,0-29.35,13.167-29.35,29.347c0,1.683,0.184,3.333,0.467,4.979
	l-55.949,80.88c-0.188,0.187-0.359,0.392-0.502,0.627c-0.063,0.103-0.096,0.211-0.148,0.313L8.388,153.983
	c-0.715,1.027-0.795,2.365-0.215,3.473c0.584,1.107,1.732,1.8,2.982,1.8h40.449c1.107,0,2.135-0.53,2.768-1.445l6.621-9.563
	c5.971,3.366,12.514,5.726,19.373,6.992l8.084,0.941c1.047,0.049,2.1,0.121,3.164,0.121c1.775,0,3.533-0.091,5.266-0.24
	l7.813,15.059c0.428,1.077,1.467,1.843,2.701,1.843h18.928c1.605,0,2.912-1.303,2.912-2.916s-1.307-2.913-2.912-2.913h-16.115
	l-6.256-12.061c28.453-5.743,49.943-30.934,49.943-61.056c0-15.49-5.611-30.07-15.857-41.494c3.986-3.104,7.086-7.163,9.027-11.752
	l17.711-10.708c0.248-0.149,0.4-0.424,0.4-0.716c0-0.294-0.152-0.573-0.4-0.719L147.081,17.938z"/>
<g>
</g>
<g>
</g>
<g>
</g>
<g>
</g>
<g>
</g>
<g>
</g>
<g>
</g>
<g>
</g>
<g>
</g>
<g>
</g>
<g>
</g>
<g>
</g>
<g>
</g>
<g>
</g>
<g>
</g>
</svg>
