<?xml version="1.0" encoding="iso-8859-1"?>
<!-- Generator: Adobe Illustrator 18.0.0, SVG Export Plug-In . SVG Version: 6.00 Build 0)  -->
<!DOCTYPE svg PUBLIC "-//W3C//DTD SVG 1.1//EN" "http://www.w3.org/Graphics/SVG/1.1/DTD/svg11.dtd">
<svg version="1.1" id="Capa_1" xmlns="http://www.w3.org/2000/svg" xmlns:xlink="http://www.w3.org/1999/xlink" x="0px" y="0px"
	 viewBox="0 0 235.637 235.637" style="enable-background:new 0 0 235.637 235.637;" xml:space="preserve">
<path d="M231.209,61.338l-10.918-2.614c-14.473-1.905-15.957-9.485-15.957-9.485c-2.631-11.638-12.824-20.345-25.41-20.345
	c-17.141,0-47.84,15.31-39.971,70.538c0,0,2.549,11.401-2.053,9.775c-7.434-1.389-15.293-2.081-23.497-1.89
	c-12.24,0.295-23.714,2.54-33.873,6.117c-17.087,6.038-47.395,16.658-72.21,6.086c-2.183-0.926-4.619-0.28-6.09,1.608
	c-1.477,1.877-1.635,4.58-0.419,6.72c11.086,19.344,30.81,45.185,55.966,62.283c14.712,10.006,35.48,17.153,59.064,16.581
	c36.627-0.906,65.357-19.023,73.47-41.232c4.855-13.34,9.756-35.424-10.389-62.75c-4.68-6.318-2.84-15.444,13.48-24.37
	c5.094-2.784,12.426-6.852,38.719-9.486C234.865,68.501,239.022,64.16,231.209,61.338z"/>
<g>
</g>
<g>
</g>
<g>
</g>
<g>
</g>
<g>
</g>
<g>
</g>
<g>
</g>
<g>
</g>
<g>
</g>
<g>
</g>
<g>
</g>
<g>
</g>
<g>
</g>
<g>
</g>
<g>
</g>
</svg>
