<?xml version="1.0" encoding="iso-8859-1"?>
<!-- Generator: Adobe Illustrator 18.0.0, SVG Export Plug-In . SVG Version: 6.00 Build 0)  -->
<!DOCTYPE svg PUBLIC "-//W3C//DTD SVG 1.1//EN" "http://www.w3.org/Graphics/SVG/1.1/DTD/svg11.dtd">
<svg version="1.1" id="Capa_1" xmlns="http://www.w3.org/2000/svg" xmlns:xlink="http://www.w3.org/1999/xlink" x="0px" y="0px"
	 viewBox="0 0 302.159 302.159" style="enable-background:new 0 0 302.159 302.159;" xml:space="preserve">
<path d="M288.43,185.595c0,0-1.147-5.456,1.723-7.186c2.879-1.732,6.031-4.085,5.18-7.479c-2.009-8.059-11.084-6.07-11.79-8.917
	c-0.304-1.216,7.753-13.618,5.782-16.911c-1.978-3.29-6.249,2.873-7.319,1.146c-1.063-1.726-57.925-89.048-174.649-78.083
	C-9.363,79.131-7.567,167.509,6.808,157.395c0,0,2.306,13.814,10.068,17.847c-4.603,8.622-4.311,12.646-5.029,24.16
	c-0.719,11.505-9.931,35.09,2.442,35.09c12.368,0,14.96,0,14.96,0s3.737-0.577,3.737-4.311c0-3.747-7.19-5.748-7.19-5.748
	s3.738-20.722,12.942-28.48c2.011,10.06,14.675,28.274,21.003,33.74c6.326,5.471,5.937,4.61,5.937,4.61s0,0,20.087,0.188
	c3.14,0.035,5.159-3.369,5.324-5.371c0.579-6.898-13.808-6.898-13.808-6.898s-11.792-12.745-0.861-34.89
	c3.738-3.747,15.248,7.462,46.027,6.319c30.781-1.149,41.713-8.916,46.603-2.297c4.887,6.609,2.872,12.935,0,17.531
	c-2.879,4.608-6.712,14.871-4.702,18.896c2.015,4.023,2.588,6.325,7.767,6.61c5.175,0.295,13.233,0.288,13.233-4.609
	c0-4.884-8.058-4.589-8.058-4.589s6.432-10.543,9.307-14.288c2.015,8.049,5.457,23.008,9.202,23.3
	c3.744,0.285,20.709,0.285,20.709,0.285s4.894-0.285,4.602-5.461c-0.286-5.183-10.066-7.192-14.092-7.767
	c-4.025-0.578,2.306-18.402-0.577-32.504c5.464-0.576,11.505-2.882,16.11-4.024c4.029,6.033,13.233,17.71,18.412,17.252
	c2.704-0.458,6.03,5.577,6.044,9.204c0.013,5.256,7.475,10.932,13.519,16.402c6.038,5.462,13.519,10.931,25.6,4.311
	c12.083-6.611,19.85-13.805,14.094-23.586C294.469,198.542,288.43,185.595,288.43,185.595z"/>
<g>
</g>
<g>
</g>
<g>
</g>
<g>
</g>
<g>
</g>
<g>
</g>
<g>
</g>
<g>
</g>
<g>
</g>
<g>
</g>
<g>
</g>
<g>
</g>
<g>
</g>
<g>
</g>
<g>
</g>
</svg>
