<?xml version="1.0" encoding="iso-8859-1"?>
<!-- Generator: Adobe Illustrator 18.0.0, SVG Export Plug-In . SVG Version: 6.00 Build 0)  -->
<!DOCTYPE svg PUBLIC "-//W3C//DTD SVG 1.1//EN" "http://www.w3.org/Graphics/SVG/1.1/DTD/svg11.dtd">
<svg version="1.1" id="Capa_1" xmlns="http://www.w3.org/2000/svg" xmlns:xlink="http://www.w3.org/1999/xlink" x="0px" y="0px"
	 viewBox="0 0 397.729 397.729" style="enable-background:new 0 0 397.729 397.729;" xml:space="preserve">
<path d="M374.732,142.099c-5.37-4.374-11.686-6.581-18.299-8.155c-14.606-3.503-28.074-0.574-40.878,6.915
	c-8.804,5.158-17.601,10.41-26.846,14.657c-9.851,4.544-19.81,4.318-29.439-1.865c-7.89-5.077-15.921-10.149-24.459-13.923
	c-15.904-7.042-32.657-9.37-49.987-6.359c-17.451,3.016-33.312,9.708-47.383,20.47c-9.289,7.095-16.903,15.696-21.445,26.601
	c-4.878,11.758-6.32,23.979-4.036,36.563c0.093,0.523,0.089,2.93-3.658,1.299c-11.62-5.054-35.335-10.696-63.36-5.871
	C30.195,214.981,4.937,223.356,0,244.774c0,0,10.085-9.096,28.263-3.926c20.686,5.885,23.936,17.111,61.709,15.259
	c21.872-1.068,32.67-8.099,35.738-17.296c2.353-5.747,44.449,25.671,53.11,26.343c0,0,31.455,2.757,30.026-4.787
	c-2.249-12.583-22.507-13.741-31.967-17.621c-9.308-3.566,33.34-17.202,39.831-18.664c5.944-1.346,36.425-6.727,46.577,4.834
	c6.735,7.677,13.704,17.77,37.838,31.183c4.44,2.458,20.272,2.098,20.328-3.88c0.14-3.883-6.771-6.594-10.615-6.684
	c-3.374-0.075-6.004-1.412-14.447-12.1c-2.946-3.734-6.825-14.764-0.738-16.641c24.201-8.001,29.877-13.186,35.099-20.837
	c6.438-9.423,15.675-14.837,25.636-19.914c7.988-4.068,21.819-3.439,27.037-3.579c5.848-0.155,5.848-1.566,6.095-5.583
	c0.072-1.004,5.171-4.695,6.373-5.726c2.37-2.022,2.436-3.019,0.266-5.231C394.547,158.291,380.144,146.526,374.732,142.099z"/>
<g>
</g>
<g>
</g>
<g>
</g>
<g>
</g>
<g>
</g>
<g>
</g>
<g>
</g>
<g>
</g>
<g>
</g>
<g>
</g>
<g>
</g>
<g>
</g>
<g>
</g>
<g>
</g>
<g>
</g>
</svg>
