<?xml version="1.0" encoding="iso-8859-1"?>
<!-- Generator: Adobe Illustrator 18.0.0, SVG Export Plug-In . SVG Version: 6.00 Build 0)  -->
<!DOCTYPE svg PUBLIC "-//W3C//DTD SVG 1.1//EN" "http://www.w3.org/Graphics/SVG/1.1/DTD/svg11.dtd">
<svg version="1.1" id="Capa_1" xmlns="http://www.w3.org/2000/svg" xmlns:xlink="http://www.w3.org/1999/xlink" x="0px" y="0px"
	 viewBox="0 0 225.659 225.659" style="enable-background:new 0 0 225.659 225.659;" xml:space="preserve">
<path d="M56.621,124.591c-0.149,3.161-12.903,6.494-12.681,8.532c0.223,2.031,12.121,2.67,13.129,4.787
	c1.066,2.236-3.566,8.264-2.629,8.939c0.941,0.68,17.552-5.43,19.904-3.084c2.347,2.355-5.069,10.503-5.483,27.093
	c-0.488,19.421,15.923,55.735,51.907,54.782c35.99-0.963,41.626-20.25,42.196-38.218c0.355-11.146-6.368-20.537-20.602-20.7
	c-14.232-0.158-20.162,10.983-21.114,13.215c-0.958,2.224-2.071,5.096,0.636,5.096c2.708,0,6.287-10.612,15.766-10.831
	c7.163-0.158,11.144,8.124,11.308,13.374c0.153,5.261-2.233,20.704-20.546,20.704c-18.314,0-25.089-15.895-25.798-30.891
	c-0.318-6.839,1.12-20.541,24.044-31.852c22.933-11.303,39.457-15.566,39.709-38.538c0.252-22.969-35.45-39.188-41.193-43.184
	c-5.741-3.989-1.869-10.358-0.626-13.107c1.249-2.738,2.657-3.079,2.87-1.616c0.874,8.104,11.112,12.099,19.101,12.223
	c7.989,0.129,14.109,1.5,20.845,4.88c6.74,3.363,11.359,1.869,13.608,0c2.25-1.878,1.121-5.496-3.122-8.244
	c-4.242-2.751-24.715-20.223-24.712-31.71c0-14.376-13.72-15.379-16.454-16.389c-2.207-0.807-1.206-9.071-3.506-9.598
	c-2.296-0.539-6.043,4.282-8.379,4.268c-2.801-0.013-3.686-4.841-5.675-4.507c-1.989,0.338-4.786,6.425-6.915,6.815
	c-2.13,0.398-6.287-4.387-8.348-3.587c-2.061,0.8-0.86,8.845-2.931,10.439c-1.859,1.424-7.993,0.363-9.48,1.965
	c-1.487,1.607,1.419,7.58,0.291,10.066c-2.087,4.589-7.366,4.164-6.977,6.381c0.398,2.215,9.329,3.592,9.619,9.328
	c0.294,5.728-14.537,9.905-14.537,32.444c0,17.038,15.832,22.458,15.791,30.55c-0.013,2.124-3.233,5.572-8.594,5.435
	c-5.362-0.154-6.573-13.6-8.81-13.96c-2.241-0.359-7.253,5.897-11.667,6.507c-4.414,0.606-13.522-5.507-15.58-3.641
	c-2.054,1.865,8.198,9.565,7.276,12.214c-1.053,3.028-14.088,4.482-14.691,6.878C42.969,120.251,56.731,122.248,56.621,124.591z"/>
<g>
</g>
<g>
</g>
<g>
</g>
<g>
</g>
<g>
</g>
<g>
</g>
<g>
</g>
<g>
</g>
<g>
</g>
<g>
</g>
<g>
</g>
<g>
</g>
<g>
</g>
<g>
</g>
<g>
</g>
</svg>
