<?xml version="1.0" encoding="iso-8859-1"?>
<!-- Generator: Adobe Illustrator 18.0.0, SVG Export Plug-In . SVG Version: 6.00 Build 0)  -->
<!DOCTYPE svg PUBLIC "-//W3C//DTD SVG 1.1//EN" "http://www.w3.org/Graphics/SVG/1.1/DTD/svg11.dtd">
<svg version="1.1" id="Capa_1" xmlns="http://www.w3.org/2000/svg" xmlns:xlink="http://www.w3.org/1999/xlink" x="0px" y="0px"
	 viewBox="0 0 200.071 200.071" style="enable-background:new 0 0 200.071 200.071;" xml:space="preserve">
<path d="M134.118,0.003C-14.669-0.544,6.997,65.531,6.997,65.531s-17.028-61.43,126.574-61.43
	c46.845,1.488,50.701,16.07,51.023,21.436h-83.849c0,0-13.429,0.639-22.333,1.941c-29.379,4.264-49.261,29.041-49.506,61.516
	c-0.423,56.859,42.654,79.088,62.849,79.469c7.668,17.654,22.634,39.795,36.653,28.559c15.772-12.637-17.57-30.582-17.57-30.582
	s34.797,7.471,34.797-8.615c0-16.084-37.547-15.079-52.882-2.359c-22.826,0.377-24.957-28.258-24.712-37.291
	c0.217-8.258,4.264-26.568,32.696-26.568c2.37,0,10.066,0,11.898,0c81.54,0,81.54-66.068,81.54-66.068
	C194.176,11.437,167.286,0.119,134.118,0.003z"/>
<g>
</g>
<g>
</g>
<g>
</g>
<g>
</g>
<g>
</g>
<g>
</g>
<g>
</g>
<g>
</g>
<g>
</g>
<g>
</g>
<g>
</g>
<g>
</g>
<g>
</g>
<g>
</g>
<g>
</g>
</svg>
